<svg width="140" height="140" viewBox="0 0 140 140" fill="none" xmlns="http://www.w3.org/2000/svg">
<g clip-path="url(#clip0_1578_4307)">
<path d="M97.9827 62.125C92.8868 61.5905 87.6564 61.5537 82.4763 61.9833C68.9648 63.1042 55.7801 67.4076 46.1096 74.3928C46.1054 74.3949 46.1007 74.3991 46.0965 74.4016C45.3241 74.9599 44.5753 75.5333 43.8505 76.126C41.0157 77.4508 37.6381 73.8842 41.5198 70.3477C41.8315 70.0514 42.1516 69.7593 42.4763 69.4717C52.0601 60.9189 67.0409 54.8013 82.9846 54.1397C88.1846 53.9249 93.4861 54.2881 98.7358 55.3379C102.174 56.2097 103.15 61.8208 97.9827 62.1254V62.125Z" fill="#E99F61"/>
<path d="M97.9838 62.125L85.5349 123.921C84.4163 129.478 77.2752 130.934 73.9666 126.635C73.8024 126.42 73.6465 126.19 73.5012 125.948L43.8516 76.1255C53.667 68.1181 67.8818 63.1945 82.4773 61.9833C87.6575 61.5537 92.8878 61.5905 97.9838 62.125V62.125Z" fill="#E99F61"/>
<g opacity="0.6">
<path d="M84.477 126.412C82.0772 129.809 76.7083 130.195 73.967 126.635C73.8028 126.42 73.647 126.19 73.5017 125.948L43.8516 76.1255C44.581 75.5308 45.334 74.9533 46.1106 74.3928L75.6567 124.041C75.8016 124.284 75.9574 124.513 76.1221 124.728C78.2081 127.438 81.8153 127.861 84.477 126.412V126.412Z" fill="white"/>
</g>
<g opacity="0.6">
<path d="M46.0965 74.4012C45.3241 74.9595 44.5753 75.5329 43.8505 76.1255C41.0157 77.4504 37.6381 73.8838 41.5198 70.3473C41.8315 70.051 42.1516 69.7588 42.4763 69.4713L42.5605 69.4993C39.8255 71.4556 43.359 76.3366 46.0965 74.4016V74.4012Z" fill="white"/>
</g>
<g opacity="0.3">
<path d="M95.5451 62.0648L83.0962 123.861C82.5032 126.805 80.2205 128.595 77.7146 128.993C76.2975 128.696 74.9599 127.925 73.9668 126.635C77.8898 124.681 77.8684 120.062 77.8684 120.062L82.0837 66.95C81.3913 67.841 80.4176 68.1912 79.5324 68.2986C78.5283 68.4253 77.6409 68.2384 77.4249 68.187H77.4228C77.3904 68.1783 77.3731 68.1741 77.3731 68.1741C81.3113 65.0605 77.9791 61.412 77.8688 57.5211C77.7888 54.734 80.7145 54.3365 82.3785 54.3345L82.9867 54.1389C84.0901 54.0937 85.1981 54.0745 86.3083 54.0808C89.6321 54.2225 92.9752 54.6111 96.2989 55.2769C99.7372 56.1487 100.713 61.7598 95.5459 62.0644L95.5451 62.0648Z" fill="#392018"/>
</g>
<path d="M42.5861 77.2677C41.3812 77.2677 40.2247 76.6914 39.5163 75.6453C38.5775 74.2583 38.4571 71.9722 40.9347 69.7154C41.2864 69.3944 41.8343 69.4178 42.1578 69.7672C42.4812 70.1166 42.4576 70.6599 42.1051 70.9809C40.6871 72.2727 40.2567 73.6585 40.9533 74.6879C41.4098 75.3628 42.3848 75.8071 43.3901 75.3879C56.5372 64.7203 77.9475 59.1824 97.9991 61.2645C99.6336 61.15 100.595 60.4299 100.71 59.233C100.824 58.0561 100.019 56.5503 98.5204 56.1704C98.0572 56.053 97.7779 55.5853 97.8963 55.1256C98.0142 54.6659 98.4851 54.3884 98.9492 54.5062C101.114 55.055 102.645 57.2031 102.434 59.3964C102.278 61.0142 101.04 62.8058 98.0332 62.9839C97.986 62.9868 97.938 62.9859 97.8908 62.9805C78.2111 60.9185 57.214 66.3386 44.3987 76.7888C44.3436 76.8339 44.2829 76.872 44.2181 76.9021C43.6891 77.1495 43.1323 77.2682 42.5857 77.2682L42.5861 77.2677Z" fill="#392018"/>
<path d="M79.0532 130C76.4627 130 74.124 128.684 72.7549 126.384L43.1048 76.5614C42.8617 76.1527 42.9982 75.6261 43.4101 75.385C43.8211 75.1438 44.3522 75.2792 44.5952 75.688L74.2453 125.51C75.7076 127.967 78.2143 128.508 80.0745 128.195C81.9339 127.882 84.121 126.551 84.6849 123.752L97.1338 61.9574C97.2277 61.4923 97.6842 61.1909 98.1522 61.2833C98.6209 61.3765 98.925 61.8287 98.8311 62.2939L86.3822 124.089C85.7664 127.145 83.4602 129.368 80.3639 129.889C79.9221 129.963 79.4841 130 79.0528 130L79.0532 130Z" fill="#392018"/>
<g opacity="0.3">
<path d="M97.0497 65.695C92.5905 65.0242 88.0168 65.1099 83.577 65.9511C79.1355 66.7878 74.8338 68.3571 70.8543 70.512C66.8732 72.6664 63.1961 75.3833 59.9616 78.5487C56.7364 81.7182 53.9307 85.3383 51.8582 89.3529L51.4707 89.1615C53.5209 85.0717 56.3144 81.3776 59.5409 78.1308C62.777 74.8885 66.4697 72.0905 70.4883 69.8542C74.5053 67.6174 78.8685 65.9649 83.3997 65.0559C87.9284 64.1424 92.6196 63.9973 97.2085 64.6334L97.0501 65.6954L97.0497 65.695Z" fill="#392018"/>
<path d="M57.0293 98.4846C58.8516 95.211 61.259 92.2913 63.9585 89.6985C66.6666 87.1095 69.6926 84.8447 72.9557 82.9758C76.2188 81.111 79.7312 79.6416 83.4108 78.7514C87.085 77.8608 90.9373 77.5707 94.7184 78.0697L94.5676 79.1329C90.9411 78.6013 87.2122 78.8241 83.6218 79.6399C80.0264 80.4548 76.5633 81.8424 73.3292 83.6298C70.0948 85.4206 67.078 87.6101 64.3688 90.1269C61.6679 92.6466 59.2488 95.496 57.4079 98.6931L57.0293 98.485V98.4846Z" fill="#392018"/>
<path d="M62.2734 107.748C62.917 106.369 63.7786 105.112 64.7317 103.941C65.6877 102.771 66.7423 101.686 67.8529 100.664C70.0783 98.6254 72.521 96.8309 75.0963 95.2507C77.6776 93.6801 80.4029 92.3269 83.2743 91.3151C84.7109 90.8131 86.1862 90.4011 87.7011 90.139C89.2147 89.8799 90.7738 89.7671 92.3401 89.9376L92.2036 91.0025C90.7814 90.8219 89.312 90.8963 87.8636 91.1186C86.4132 91.3427 84.9779 91.7146 83.5721 92.1781C80.76 93.1122 78.0558 94.3931 75.4872 95.8939C72.9236 97.4043 70.4813 99.132 68.2534 101.101C67.142 102.087 66.0857 103.135 65.128 104.265C64.1737 105.395 63.3116 106.609 62.6664 107.928L62.2734 107.748V107.748Z" fill="#392018"/>
<path d="M67.6063 116.063C68.8774 114.257 70.3303 112.579 71.9194 111.038C73.5101 109.498 75.2376 108.093 77.0945 106.867C78.9514 105.644 80.9409 104.596 83.0593 103.841C85.1735 103.09 87.4322 102.636 89.7237 102.703L89.6761 103.776C87.5547 103.661 85.4051 104.033 83.3583 104.704C81.3073 105.378 79.3485 106.347 77.5055 107.498C75.6626 108.651 73.9312 109.988 72.3291 111.465C70.7279 112.943 69.2547 114.562 67.9576 116.313L67.6055 116.063L67.6063 116.063Z" fill="#392018"/>
<path d="M87.7189 114.421L87.1323 114.498C86.9407 114.526 86.7461 114.544 86.5574 114.581L85.9893 114.691C85.7993 114.726 85.6102 114.763 85.4237 114.815C85.0497 114.912 84.6706 114.993 84.303 115.117L83.7475 115.289C83.5617 115.345 83.3827 115.42 83.1995 115.485C81.7419 116.017 80.3399 116.711 79.0297 117.551C76.4084 119.227 74.1612 121.505 72.5924 124.209L72.2129 124.002C73.7219 121.183 75.9536 118.753 78.6077 116.927C79.9343 116.012 81.3646 115.241 82.8677 114.634C83.0564 114.56 83.2408 114.475 83.4333 114.41L84.0086 114.21C84.3893 114.068 84.7843 113.968 85.1743 113.853C85.3689 113.793 85.5673 113.746 85.7665 113.703L86.3633 113.566C86.5625 113.52 86.7629 113.495 86.963 113.458L87.5543 113.36L87.7189 114.421V114.421Z" fill="#392018"/>
<path d="M49.2617 84.9864C53.1481 85.1557 56.9794 85.9422 60.6914 87.051C64.4073 88.1643 68.0115 89.6267 71.4793 91.356C74.945 93.0883 78.2885 95.0785 81.4029 97.4013C82.9574 98.5653 84.4538 99.8149 85.8407 101.192C86.541 101.872 87.1913 102.608 87.8176 103.367C88.427 104.141 88.9951 104.956 89.4748 105.84L88.5129 106.332C88.0867 105.521 87.5661 104.748 86.998 104.005C86.4109 103.274 85.7973 102.558 85.1272 101.888C83.8027 100.536 82.3552 99.2912 80.8445 98.1269C77.8164 95.8019 74.539 93.7871 71.1344 92.026C67.7276 90.2673 64.1777 88.7687 60.515 87.6156C56.8555 86.4667 53.0753 85.6363 49.2402 85.416L49.2613 84.9873L49.2617 84.9864Z" fill="#392018"/>
<path d="M58.9344 101.205C61.7401 101.605 64.5151 102.247 67.2072 103.15C69.8983 104.053 72.5065 105.217 74.9593 106.658C77.4113 108.098 79.7074 109.816 81.7538 111.801C83.8002 113.785 85.5935 116.038 87.0423 118.5L86.1022 119.032C84.7503 116.629 83.0569 114.414 81.104 112.448C79.1515 110.48 76.943 108.758 74.5668 107.302C69.809 104.384 64.4098 102.527 58.8691 101.63L58.934 101.205L58.9344 101.205Z" fill="#392018"/>
<path d="M66.7236 114.644C68.559 114.852 70.3531 115.339 72.0714 115.999C73.7905 116.662 75.4385 117.501 77.0001 118.477C78.5614 119.453 80.0392 120.567 81.3962 121.822C82.7489 123.079 83.9921 124.475 84.9873 126.073L84.0536 126.616C83.1755 125.107 82.0279 123.729 80.7585 122.479C79.4854 121.23 78.0804 120.104 76.5874 119.107C75.0932 118.111 73.5079 117.244 71.8486 116.547C70.1897 115.853 68.452 115.326 66.668 115.07L66.7231 114.645L66.7236 114.644Z" fill="#392018"/>
<path d="M50.0002 71.6466C54.0529 72.3053 58.059 73.2619 61.969 74.5236C65.8781 75.7862 69.6929 77.3547 73.3384 79.2587C76.9818 81.1636 80.4593 83.4058 83.6331 86.0346C86.8027 88.6621 89.6721 91.6841 91.985 95.1161L91.0804 95.705C88.8807 92.3457 86.118 89.3525 83.0393 86.7317C79.9573 84.1092 76.5573 81.8516 72.9809 79.9216C69.4019 77.9916 65.6427 76.388 61.7807 75.0841C57.9175 73.781 53.9498 72.7784 49.9277 72.0704L50.0002 71.6471V71.6466Z" fill="#392018"/>
<path d="M73.2692 65.5478C75.3674 66.4297 77.4121 67.4456 79.3734 68.6071C81.3352 69.7676 83.2131 71.0732 84.9824 72.513C88.5272 75.39 91.6147 78.8061 94.2583 82.5156L93.3671 83.1246C90.8591 79.4222 87.9128 76.0006 84.4955 73.0889C82.7898 71.632 80.9717 70.3022 79.063 69.1107C77.1544 67.9187 75.1556 66.8647 73.0957 65.9411L73.2692 65.5474V65.5478Z" fill="#392018"/>
<path d="M87.4712 61.2524C88.5009 61.7267 89.4607 62.2918 90.3885 62.9237C91.3112 63.5593 92.1851 64.2686 93.0022 65.043C93.8268 65.8107 94.5676 66.6712 95.2334 67.5898L95.7199 68.2903L96.1524 69.0275L96.3634 69.3994L96.5416 69.7889C96.6578 70.0501 96.7728 70.3118 96.8785 70.5767L95.8694 70.9642C95.7523 70.7264 95.6449 70.4852 95.5379 70.2432L95.3821 69.8784L95.1972 69.5265L94.8325 68.8185L94.4118 68.139C93.8331 67.2434 93.1748 66.3874 92.4239 65.6105C91.6814 64.8269 90.8745 64.0968 90.012 63.4323C89.152 62.7707 88.2377 62.1505 87.2871 61.6411L87.4707 61.2524H87.4712Z" fill="#392018"/>
</g>
<path d="M87.6761 28.7833C82.7098 25.8716 76.1036 26.636 76.1036 26.636C61.9646 27.6988 50.4612 34.796 50.4612 34.796C48.1326 28.79 50.8335 23.731 55.9728 21.4717C63.2824 17.8921 64.6457 12.8223 59.7274 11.637C59.9915 11.5639 60.2576 11.4953 60.5238 11.4331C71.2199 8.90588 83.7686 14.9976 78.8044 25.9681C82.3228 26.2193 85.3934 27.2307 87.6765 28.7833H87.6761Z" fill="#E65492"/>
<path d="M98.7361 55.3371C93.0712 54.1259 87.1245 54.1217 80.9596 55.047C80.741 55.0943 80.5355 55.1436 80.343 55.1996C76.1407 56.3765 78.3067 59.1979 79.0838 62.9258C79.2893 63.9138 79.2809 64.9398 78.9797 65.9018C77.6683 70.1191 72.4902 69.2624 72.4902 65.4789C72.4902 60.6046 70.3676 58.7085 67.868 58.3904C65.9421 58.1455 64.0486 58.9446 62.748 60.3748C59.0562 64.4332 60.753 69.0973 63.9424 72.7111C65.2994 74.2487 65.1065 76.6534 63.4514 77.8712C61.3738 79.4021 57.9182 78.5132 57.4575 73.7914C57.332 72.0993 57.0747 70.7983 56.8085 69.8404C56.3499 68.1954 55.3218 66.7419 53.857 65.8442C49.5983 63.235 45.5822 67.4331 41.5206 70.3469C35.1607 66.3916 38.017 56.7543 43.1197 52.4513C39.6444 46.2668 43.0397 38.4035 50.2107 34.9164C50.3728 34.839 50.4617 34.796 50.4617 34.796C50.4617 34.796 61.9651 27.6992 76.1041 26.636C76.1041 26.636 82.7103 25.8716 87.6766 28.7833C88.0186 29.0152 88.3454 29.2601 88.6503 29.5155C90.6626 31.201 91.8616 33.3805 91.9265 35.8437C91.9631 37.1514 91.6775 38.5385 91.0264 39.9728C91.1477 39.9728 91.2686 39.9749 91.392 39.9816C97.4031 40.28 104.016 47.8495 98.7365 55.3371H98.7361Z" fill="#E65492"/>
<path d="M91.3917 39.9816C91.3829 40.0159 91.3724 40.0502 91.3614 40.0848L87.2522 39.9774C72.5484 39.5478 57.4336 42.6572 43.1194 52.4513C39.6441 46.2668 43.0394 38.4035 50.2104 34.9164C50.3726 34.839 50.4614 34.796 50.4614 34.796C50.4614 34.796 61.9648 27.6992 76.1038 26.636C76.1038 26.636 82.7101 25.8716 87.6763 28.7833C87.9012 28.9166 88.1244 29.0537 88.3405 29.202C88.4466 29.3074 88.5502 29.4102 88.65 29.5155C90.6753 31.6047 91.7531 33.574 91.9262 35.8437C92.0235 37.1042 91.844 38.4591 91.3917 39.9816V39.9816Z" fill="#E65492"/>
<g opacity="0.6">
<path d="M62.6456 78.3201C60.5832 79.1317 57.8633 77.9423 57.4586 73.7914C57.3331 72.0992 57.0758 70.7982 56.8096 69.8404C56.351 68.1954 55.3229 66.7418 53.8582 65.8441C53.33 65.5198 52.8065 65.3029 52.2852 65.1721C53.6181 64.8695 54.9683 65.0024 56.3426 65.8441C57.8073 66.7418 58.8354 68.1954 59.294 69.8404C59.5602 70.7982 59.8175 72.0992 59.943 73.7914C60.194 76.3575 61.3278 77.7918 62.6456 78.3201Z" fill="white"/>
</g>
<g opacity="0.6">
<path d="M71.6031 41.4414C63.5296 43.5478 55.1553 47.0416 47.2743 51.6735C44.6497 53.2152 42.5157 55.4871 41.2737 58.2529C39.8952 61.3234 39.365 65.4036 42.7776 69.4124C42.3577 69.73 41.9404 70.046 41.5205 70.3464C35.1606 66.3912 38.0173 56.7538 43.1196 52.4509C39.6034 46.1958 43.1196 38.2205 50.4616 34.7956C48.133 28.7895 50.8339 23.7305 55.9732 21.4712C63.2828 17.8917 64.6461 12.8218 59.7274 11.6366C59.9915 11.5635 60.2576 11.4949 60.5238 11.4326C62.5533 10.9537 64.6482 10.784 66.6781 10.9002C65.4492 10.9713 64.2156 11.1472 63.0082 11.4326C62.742 11.4949 62.4758 11.5635 62.2118 11.6366C67.1304 12.8218 65.7672 17.8917 58.4572 21.4712C53.8544 23.4961 51.2083 27.7673 52.3787 32.9529C52.4435 33.2342 52.4587 33.5175 52.4284 33.7946C58.3965 30.7968 64.0615 28.319 68.1905 28.4757C63.4879 29.877 57.812 32.5204 51.7057 35.7112C49.5856 36.8192 47.7443 38.406 46.4029 40.3761C44.7036 42.8716 43.3319 46.5844 45.0544 51.3187C53.5259 45.8192 62.3179 42.2033 71.6035 41.441L71.6031 41.4414Z" fill="white"/>
</g>
<g opacity="0.6">
<path d="M76.8381 68.4595C74.8928 69.2753 72.491 68.0558 72.491 65.4789C72.491 60.9632 70.6691 59.0027 68.4121 58.4895C69.0417 58.3457 69.6954 58.3069 70.3532 58.3909C72.8523 58.7085 74.9754 60.6046 74.9754 65.4793C74.9754 66.9717 75.7827 68.009 76.8386 68.46L76.8381 68.4595Z" fill="white"/>
</g>
<path d="M61.3893 79.4137C60.8161 79.4137 60.2433 79.2979 59.7085 79.0622C58.6918 78.6142 56.9356 77.3446 56.597 73.8737C56.49 72.4481 56.2807 71.1743 55.9737 70.0689C55.5601 68.5786 54.647 67.3377 53.4025 66.575C50.3306 64.6923 47.2478 67.0632 43.9842 69.5728C43.3454 70.0643 42.685 70.5721 42.028 71.0435C41.742 71.2487 41.36 71.2612 41.0614 71.0753C38.6398 69.5695 37.2458 67.2019 37.0289 64.2292C36.7303 60.1314 38.7712 55.3081 42.0419 52.256C40.7127 49.5211 40.519 46.3829 41.5053 43.3425C42.7233 39.5874 45.5758 36.351 49.3902 34.3646C48.4674 31.5449 48.5458 28.7991 49.626 26.3801C50.7358 23.8951 52.8032 21.9292 55.606 20.693C60.1006 18.4888 61.9351 15.9086 61.7595 14.3284C61.6352 13.2096 60.475 12.701 59.5236 12.4715C59.1412 12.3792 58.8699 12.0427 58.8628 11.6524C58.8556 11.2621 59.1151 10.916 59.4937 10.8103C66.6154 8.82096 74.5819 10.5967 78.4359 15.0322C80.8618 17.8243 81.416 21.4089 80.0397 25.2246C85.2637 25.859 89.5068 28.1714 91.5263 31.5319C92.9291 33.866 93.1759 36.4981 92.2595 39.2059C95.5154 39.6819 98.7314 41.9801 100.378 45.1183C102.2 48.59 101.868 52.3944 99.4444 55.8306C99.2447 56.1135 98.8927 56.2506 98.5532 56.1779C93.2644 55.0474 87.3973 54.9521 81.1153 55.8928C79.9146 56.1528 79.1603 56.5306 78.8731 57.0158C78.465 57.7054 78.8402 58.9257 79.2753 60.3383C79.4985 61.0647 79.7516 61.8876 79.9323 62.7531C80.1774 63.9287 80.1344 65.1052 79.8081 66.155C78.9683 68.8552 76.7833 69.7935 74.9905 69.5252C73.0089 69.2289 71.625 67.5651 71.625 65.4796C71.625 62.8592 70.9541 59.65 67.7576 59.2433C66.1791 59.0427 64.5463 59.6805 63.3915 60.9506C59.5598 65.1637 62.5003 69.7734 64.5943 72.146C65.4189 73.0809 65.8156 74.3267 65.6821 75.565C65.5507 76.7808 64.9426 77.8452 63.9689 78.5624C63.2053 79.1249 62.2965 79.4146 61.3893 79.4146V79.4137ZM51.0942 64.1673C52.1487 64.1673 53.2227 64.4461 54.3126 65.114C55.9299 66.1053 57.1125 67.703 57.6431 69.6129C57.9796 70.8253 58.2083 72.2095 58.322 73.7274C58.5086 75.6373 59.2511 76.9814 60.4109 77.4925C61.2356 77.8561 62.1802 77.7399 62.937 77.1824C63.5182 76.7545 63.8821 76.1146 63.9609 75.3816C64.043 74.6193 63.7991 73.852 63.2921 73.2773C59.0847 68.5096 58.6526 63.5969 62.1065 59.7992C63.6416 58.1116 65.8367 57.2665 67.9778 57.539C69.9867 57.7944 73.3564 59.1656 73.3564 65.4792C73.3564 67.0026 74.376 67.6955 75.2491 67.8263C76.2316 67.9738 77.5814 67.4911 78.1542 65.6485C78.3947 64.8749 78.4237 63.9939 78.2371 63.1012C78.0729 62.3134 77.8425 61.5645 77.6197 60.8402C77.0891 59.1155 76.5879 57.486 77.3809 56.1461C77.9411 55.1999 79.0201 54.5843 80.7767 54.2086C80.7944 54.2048 80.8117 54.2015 80.8294 54.199C87.1024 53.2561 92.9898 53.3171 98.3388 54.3795C100.088 51.6208 100.271 48.6334 98.843 45.9123C97.2986 42.9693 94.0115 40.8333 91.0263 40.8333C90.7324 40.8333 90.4586 40.6853 90.2994 40.4404C90.1398 40.1955 90.1166 39.8871 90.2371 39.6213C91.4016 37.0569 91.3334 34.5644 90.04 32.4125C88.1604 29.2856 83.937 27.1968 78.7425 26.8256C78.4608 26.8056 78.2064 26.6501 78.0615 26.4094C77.9166 26.1687 77.8994 25.8728 78.0152 25.617C79.6577 21.9869 79.3498 18.7149 77.1253 16.1543C74.1549 12.7357 68.1021 11.0957 62.3335 11.9596C63.1657 12.6976 63.4155 13.5586 63.4803 14.1407C63.7802 16.8397 61.0507 19.9441 56.3561 22.2422C56.3455 22.2477 56.3346 22.2527 56.3236 22.2573C51.2395 24.4924 49.2558 29.2927 51.2698 34.4875C51.4328 34.9079 51.2412 35.3818 50.8305 35.5732C47.0966 37.3147 44.2984 40.3389 43.1533 43.8699C42.2411 46.6826 42.4976 49.5821 43.8756 52.0349C44.0769 52.3931 43.9948 52.8424 43.6802 53.1078C40.5544 55.7432 38.4835 60.3688 38.756 64.1067C38.8702 65.6681 39.4493 67.7853 41.5024 69.297C41.9783 68.9447 42.4576 68.5761 42.9246 68.2166C45.4339 66.2871 48.189 64.1686 51.095 64.1686L51.0942 64.1673Z" fill="#392018"/>
<g opacity="0.3">
<path d="M56.2674 31.3489C55.9743 25.0859 63.603 22.0045 64.0394 28.4678C60.1597 31.8897 58.9274 36.4117 61.9294 42.694L55.0048 45.4318C52.3591 41.6232 51.617 35.422 56.267 31.3489H56.2674Z" fill="white"/>
</g>
<g opacity="0.3">
<path d="M50.8336 47.8386L57.4639 44.8438C57.4639 44.8438 55.6407 48.664 56.6835 52.2991C57.2002 54.1 56.7955 56.0676 55.4853 57.415C54.4661 58.4627 53.4048 58.629 52.3115 58.1317C51.1394 57.5989 50.3548 56.4634 50.1952 55.1941C49.9147 52.9645 49.9825 50.1401 50.8332 47.839L50.8336 47.8386Z" fill="white"/>
</g>
<path d="M60.036 63.4966C60.3544 62.367 60.7705 61.2603 61.3146 60.2097C61.8583 59.1602 62.5334 58.1656 63.3631 57.3034C64.1898 56.4408 65.1766 55.7207 66.2619 55.2242C67.3464 54.7235 68.5147 54.4498 69.6796 54.3516C69.8838 54.3344 70.0632 54.4845 70.0805 54.6872C70.0969 54.8803 69.9601 55.0512 69.7705 55.0817L69.7613 55.0834C68.6823 55.2543 67.6412 55.5841 66.7092 56.0998C65.7759 56.6126 64.9593 57.3067 64.2867 58.1196C63.612 58.9325 63.0763 59.859 62.6577 60.837C62.2386 61.8162 61.9341 62.8476 61.7198 63.897V63.8991C61.6246 64.3643 61.1672 64.6652 60.6985 64.5711C60.2297 64.4771 59.9265 64.0232 60.0212 63.5581C60.0255 63.538 60.0305 63.5167 60.036 63.4971V63.4966Z" fill="#392018"/>
<path d="M42.689 51.8336C45.9303 49.6269 49.3433 47.6635 52.9008 45.9977C56.4574 44.3306 60.1568 42.9614 63.9447 41.9116C64.8856 41.6249 65.8475 41.4189 66.8014 41.1823C67.2786 41.0653 67.7562 40.9483 68.2396 40.8593L69.6838 40.5634L70.4056 40.4138C70.647 40.3682 70.89 40.3302 71.1321 40.2884L72.5872 40.0497C72.8298 40.0117 73.072 39.9678 73.3158 39.9373L74.0486 39.8583C74.5372 39.8048 75.0257 39.7522 75.5147 39.7083C79.4297 39.3748 83.3637 39.3405 87.2619 39.6569C87.4409 39.6715 87.574 39.827 87.5592 40.0046C87.5458 40.1701 87.4059 40.2963 87.2425 40.3009C83.3616 40.3954 79.4984 40.6386 75.6793 41.169C74.7275 41.3232 73.7685 41.4168 72.821 41.5852L71.3945 41.808C71.157 41.8447 70.9182 41.8773 70.6811 41.9175L69.9723 42.0537C69.0293 42.2443 68.0783 42.401 67.1476 42.6459C66.2139 42.8779 65.2722 43.0785 64.352 43.3597C60.645 44.3874 57.0272 45.726 53.5472 47.3572C50.0664 48.9875 46.7254 50.9091 43.5482 53.0715L43.5453 53.0736C43.2003 53.3085 42.7291 53.2211 42.4924 52.8788C42.2557 52.5365 42.3433 52.0689 42.6886 51.834L42.689 51.8336Z" fill="#392018"/>
<path d="M50.0617 34.157C51.0733 33.5539 52.071 33.0273 53.0961 32.5091C53.6082 32.2554 54.1224 32.0063 54.6388 31.7614C55.1593 31.5265 55.6761 31.2829 56.1996 31.0547L57.7768 30.3856L59.3683 29.7504C60.4376 29.3483 61.5053 28.9379 62.5986 28.6006C63.6826 28.235 64.8004 27.9771 65.9055 27.6862L67.583 27.3226C67.863 27.2645 68.1414 27.2006 68.4223 27.1475L69.2684 27.0046C71.5182 26.5925 73.8047 26.4065 76.0802 26.3158C76.2592 26.3087 76.4103 26.4471 76.4175 26.6247C76.4242 26.7894 76.3051 26.9302 76.1454 26.9557L76.1294 26.9582C75.5731 27.0476 75.0172 27.1321 74.4621 27.214L73.6303 27.3385C73.354 27.3857 73.0794 27.4476 72.8036 27.4973L71.1535 27.8141C70.6064 27.9345 70.0636 28.0732 69.519 28.2007L68.7024 28.3904C68.4312 28.459 68.1629 28.5384 67.8929 28.6119L66.2765 29.0566C65.211 29.3964 64.1409 29.7132 63.085 30.0784C62.5539 30.2515 62.0199 30.4144 61.4964 30.6088C60.97 30.7956 60.4398 30.9711 59.9167 31.1675L58.3546 31.7752L56.8119 32.4297C56.2998 32.6524 55.7948 32.8907 55.2861 33.1205C54.782 33.36 54.2795 33.6032 53.78 33.8502C52.7891 34.3501 51.7897 34.88 50.8623 35.4329L50.8425 35.4446C50.4841 35.6582 50.0187 35.5432 49.8035 35.1876C49.5883 34.8319 49.7041 34.3701 50.0625 34.1566L50.0617 34.157Z" fill="#392018"/>
<g opacity="0.3">
<path d="M96.558 54.9334C93.8252 54.4995 91.0312 54.332 88.1792 54.403C85.8098 54.4611 83.4033 54.6801 80.9602 55.047C80.7416 55.0943 80.5361 55.1436 80.3436 55.1996C80.4885 55.0537 80.627 54.9033 80.7593 54.7507C85.5002 49.2366 80.6338 40.4668 74.4255 40.4668L73.4779 40.6386L69.2647 41.4072C69.5115 41.2224 69.7427 41.0315 69.9571 40.8338C74.7696 36.4426 71.8637 29.3822 67.4361 28.2141L70.2944 27.6256C75.505 18.5362 68.2796 11.1234 60.3535 11.6366C60.3535 11.6366 60.4121 11.5656 60.5245 11.4327C61.7383 11.1472 62.976 10.9688 64.2096 10.8981H64.2159C72.8934 11.3875 80.3781 17.0738 76.3532 25.9681C85.7142 26.636 91.8858 32.6809 88.5751 39.9728C94.5715 39.9728 101.427 47.4282 96.5576 54.9334H96.558Z" fill="#392018"/>
</g>
<g opacity="0.3">
<path d="M69.0428 58.7415C69.0428 58.7415 63.6853 60.3371 65.2966 65.2854L64.2745 65.6185C64.2745 65.6185 64.365 68.1398 66.7728 70.1262C69.1801 72.1126 70.1378 77.0897 63.7059 78.3322C65.4996 76.859 66.0239 74.3389 63.756 71.8589C58.6188 66.6771 61.1065 57.1851 69.0428 58.7419V58.7415Z" fill="#392018"/>
</g>
</g>
<defs>
<clipPath id="clip0_1578_4307">
<rect width="65.4545" height="120" fill="white" transform="translate(37 10)"/>
</clipPath>
</defs>
</svg>
